{
	"patcher" : 	{
		"fileversion" : 1,
		"appversion" : 		{
			"major" : 8,
			"minor" : 5,
			"revision" : 5,
			"architecture" : "x64",
			"modernui" : 1
		}
,
		"classnamespace" : "box",
		"rect" : [ 632.0, 576.0, 640.0, 480.0 ],
		"bglocked" : 0,
		"openinpresentation" : 0,
		"default_fontsize" : 12.0,
		"default_fontface" : 0,
		"default_fontname" : "Arial",
		"gridonopen" : 1,
		"gridsize" : [ 15.0, 15.0 ],
		"gridsnaponopen" : 1,
		"objectsnaponopen" : 1,
		"statusbarvisible" : 2,
		"toolbarvisible" : 1,
		"lefttoolbarpinned" : 0,
		"toptoolbarpinned" : 0,
		"righttoolbarpinned" : 0,
		"bottomtoolbarpinned" : 0,
		"toolbars_unpinned_last_save" : 0,
		"tallnewobj" : 0,
		"boxanimatetime" : 200,
		"enablehscroll" : 1,
		"enablevscroll" : 1,
		"devicewidth" : 0.0,
		"description" : "",
		"digest" : "",
		"tags" : "",
		"style" : "",
		"subpatcher_template" : "",
		"assistshowspatchername" : 0,
		"boxes" : [ 			{
				"box" : 				{
					"bgmode" : 0,
					"border" : 0,
					"clickthrough" : 0,
					"embed" : 1,
					"enablehscroll" : 0,
					"enablevscroll" : 0,
					"id" : "obj-19",
					"lockeddragscroll" : 0,
					"lockedsize" : 0,
					"maxclass" : "bpatcher",
					"name" : "tof_debug-box",
					"numinlets" : 1,
					"numoutlets" : 1,
					"offset" : [ 0.0, 0.0 ],
					"outlettype" : [ "" ],
					"patcher" : 					{
						"fileversion" : 1,
						"appversion" : 						{
							"major" : 8,
							"minor" : 5,
							"revision" : 5,
							"architecture" : "x64",
							"modernui" : 1
						}
,
						"classnamespace" : "box",
						"rect" : [ 416.0, 529.0, 1033.0, 661.0 ],
						"bglocked" : 0,
						"openinpresentation" : 1,
						"default_fontsize" : 12.0,
						"default_fontface" : 0,
						"default_fontname" : "Arial",
						"gridonopen" : 1,
						"gridsize" : [ 15.0, 15.0 ],
						"gridsnaponopen" : 1,
						"objectsnaponopen" : 1,
						"statusbarvisible" : 2,
						"toolbarvisible" : 1,
						"lefttoolbarpinned" : 0,
						"toptoolbarpinned" : 0,
						"righttoolbarpinned" : 0,
						"bottomtoolbarpinned" : 0,
						"toolbars_unpinned_last_save" : 0,
						"tallnewobj" : 0,
						"boxanimatetime" : 200,
						"enablehscroll" : 1,
						"enablevscroll" : 1,
						"devicewidth" : 0.0,
						"description" : "",
						"digest" : "",
						"tags" : "",
						"style" : "",
						"subpatcher_template" : "",
						"assistshowspatchername" : 0,
						"boxes" : [ 							{
								"box" : 								{
									"angle" : 270.0,
									"bgcolor" : [ 0.0, 0.694117647058824, 0.294117647058824, 1.0 ],
									"id" : "obj-3",
									"maxclass" : "panel",
									"mode" : 0,
									"numinlets" : 1,
									"numoutlets" : 0,
									"patching_rect" : [ 378.0, 199.0, 128.0, 128.0 ],
									"presentation" : 1,
									"presentation_rect" : [ 0.0, 24.0, 20.0, 4.0 ],
									"proportion" : 0.5,
									"rounded" : 0
								}

							}
, 							{
								"box" : 								{
									"angle" : 270.0,
									"bgcolor" : [ 0.0, 0.694117647058824, 0.294117647058824, 1.0 ],
									"id" : "obj-2",
									"maxclass" : "panel",
									"mode" : 0,
									"numinlets" : 1,
									"numoutlets" : 0,
									"patching_rect" : [ 363.0, 184.0, 128.0, 128.0 ],
									"presentation" : 1,
									"presentation_rect" : [ 0.0, 0.0, 20.0, 4.0 ],
									"proportion" : 0.5,
									"rounded" : 0
								}

							}
, 							{
								"box" : 								{
									"activebgoncolor" : [ 0.0, 0.694117647058824, 0.294117647058824, 1.0 ],
									"id" : "obj-29",
									"ignoreclick" : 1,
									"maxclass" : "live.button",
									"numinlets" : 1,
									"numoutlets" : 1,
									"outlettype" : [ "" ],
									"parameter_enable" : 1,
									"patching_rect" : [ 399.0, 421.0, 15.0, 15.0 ],
									"presentation" : 1,
									"presentation_rect" : [ 0.0, 4.0, 15.0, 15.0 ],
									"saved_attribute_attributes" : 									{
										"activebgoncolor" : 										{
											"expression" : ""
										}
,
										"valueof" : 										{
											"parameter_enum" : [ "off", "on" ],
											"parameter_longname" : "live.button[4]",
											"parameter_mmax" : 1,
											"parameter_shortname" : "live.button",
											"parameter_type" : 2
										}

									}
,
									"varname" : "live.button"
								}

							}
, 							{
								"box" : 								{
									"angle" : 0.0,
									"bgcolor" : [ 0.0, 0.0, 0.0, 1.0 ],
									"bordercolor" : [ 0.807843137254902, 0.898039215686275, 0.909803921568627, 0.0 ],
									"id" : "obj-30",
									"maxclass" : "panel",
									"mode" : 0,
									"numinlets" : 1,
									"numoutlets" : 0,
									"patching_rect" : [ 144.0, 288.0, 576.0, 17.0 ],
									"presentation" : 1,
									"presentation_rect" : [ 0.0, 4.0, 13.0, 20.0 ],
									"proportion" : 0.39,
									"rounded" : 0
								}

							}
, 							{
								"box" : 								{
									"id" : "obj-23",
									"maxclass" : "newobj",
									"numinlets" : 1,
									"numoutlets" : 1,
									"outlettype" : [ "" ],
									"patching_rect" : [ 645.0, 343.0, 72.0, 22.0 ],
									"text" : "prepend set"
								}

							}
, 							{
								"box" : 								{
									"bgcolor" : [ 0.0, 0.0, 0.0, 1.0 ],
									"border" : 0.0,
									"hint" : "Embedded tof_display-message v1.0 from tof-max. Simply displays any message it receives and passes it thru. ",
									"id" : "obj-22",
									"ignoreclick" : 1,
									"lines" : 1,
									"maxclass" : "textedit",
									"numinlets" : 1,
									"numoutlets" : 4,
									"outlettype" : [ "", "int", "", "" ],
									"parameter_enable" : 0,
									"parameter_mappable" : 0,
									"patching_rect" : [ 636.5, 386.0, 100.0, 50.0 ],
									"presentation" : 1,
									"presentation_rect" : [ 13.0, 4.0, 232.0, 20.0 ],
									"readonly" : 1,
									"rounded" : 0.0,
									"wordwrap" : 0
								}

							}
, 							{
								"box" : 								{
									"id" : "obj-7",
									"maxclass" : "newobj",
									"numinlets" : 2,
									"numoutlets" : 1,
									"outlettype" : [ "bang" ],
									"patching_rect" : [ 114.0, 142.0, 61.0, 22.0 ],
									"text" : "delay 200"
								}

							}
, 							{
								"box" : 								{
									"comment" : "",
									"id" : "obj-17",
									"index" : 1,
									"maxclass" : "outlet",
									"numinlets" : 1,
									"numoutlets" : 0,
									"patching_rect" : [ 346.5, 532.0, 30.0, 30.0 ]
								}

							}
, 							{
								"box" : 								{
									"id" : "obj-12",
									"maxclass" : "message",
									"numinlets" : 2,
									"numoutlets" : 1,
									"outlettype" : [ "" ],
									"patching_rect" : [ 434.0, 231.0, 29.5, 22.0 ],
									"text" : "set"
								}

							}
, 							{
								"box" : 								{
									"id" : "obj-8",
									"maxclass" : "newobj",
									"numinlets" : 0,
									"numoutlets" : 1,
									"outlettype" : [ "bang" ],
									"patching_rect" : [ 615.0, 67.0, 65.0, 22.0 ],
									"text" : "pastebang"
								}

							}
, 							{
								"box" : 								{
									"id" : "obj-10",
									"maxclass" : "newobj",
									"numinlets" : 1,
									"numoutlets" : 3,
									"outlettype" : [ "", "bang", "" ],
									"patching_rect" : [ 346.5, 96.0, 40.0, 22.0 ],
									"text" : "t l b l"
								}

							}
, 							{
								"box" : 								{
									"comment" : "",
									"id" : "obj-1",
									"index" : 1,
									"maxclass" : "inlet",
									"numinlets" : 0,
									"numoutlets" : 1,
									"outlettype" : [ "" ],
									"patching_rect" : [ 356.5, 9.0, 30.0, 30.0 ]
								}

							}
 ],
						"lines" : [ 							{
								"patchline" : 								{
									"destination" : [ "obj-10", 0 ],
									"source" : [ "obj-1", 0 ]
								}

							}
, 							{
								"patchline" : 								{
									"destination" : [ "obj-17", 0 ],
									"source" : [ "obj-10", 0 ]
								}

							}
, 							{
								"patchline" : 								{
									"destination" : [ "obj-23", 0 ],
									"source" : [ "obj-10", 2 ]
								}

							}
, 							{
								"patchline" : 								{
									"destination" : [ "obj-29", 0 ],
									"order" : 0,
									"source" : [ "obj-10", 1 ]
								}

							}
, 							{
								"patchline" : 								{
									"destination" : [ "obj-7", 0 ],
									"order" : 1,
									"source" : [ "obj-10", 1 ]
								}

							}
, 							{
								"patchline" : 								{
									"destination" : [ "obj-22", 0 ],
									"source" : [ "obj-12", 0 ]
								}

							}
, 							{
								"patchline" : 								{
									"destination" : [ "obj-22", 0 ],
									"source" : [ "obj-23", 0 ]
								}

							}
, 							{
								"patchline" : 								{
									"destination" : [ "obj-12", 0 ],
									"source" : [ "obj-8", 0 ]
								}

							}
 ]
					}
,
					"patching_rect" : [ 126.5, 119.0, 243.0, 27.0 ],
					"viewvisibility" : 1
				}

			}
 ],
		"lines" : [  ],
		"parameters" : 		{
			"obj-19::obj-29" : [ "live.button[4]", "live.button", 0 ],
			"obj-19::obj-8::obj-2" : [ "pastebang", "pastebang", 0 ],
			"parameterbanks" : 			{
				"0" : 				{
					"index" : 0,
					"name" : "",
					"parameters" : [ "-", "-", "-", "-", "-", "-", "-", "-" ]
				}

			}
,
			"inherited_shortname" : 1
		}
,
		"dependency_cache" : [ 			{
				"name" : "pastebang.maxpat",
				"bootpath" : "C74:/packages/Beap/misc",
				"type" : "JSON",
				"implicit" : 1
			}
 ],
		"autosave" : 0
	}

}
